#!OML:ASF F:\VICON\USERDATA\INSTALL\rory3\rory3.ASF
:FULLY-SPECIFIED
:DEGREES
97
root 0.36909964723092564 17.683533734782067 45.844622125102 -3.4064423727276436 -3.3624020747316754 -4.9800607847284954
lfemur -24.562496163291257 -3.126397653773638 -12.993802682460458
ltibia 31.566712281971913
lfoot -5.3387925213834135 -3.124537983314454
ltoes -8.921926996132445
rfemur -0.7169371976548735 2.4408205799326463 29.63507315062789
rtibia 40.360107926269535
rfoot -5.963751589657566 -6.724946725553038
rtoes 2.8255983822967132
lowerback 10.448763015257938 1.5590041373008219 3.7540910907669494
upperback -0.05672622789362593 2.9386195440042036 1.8381680093761072
thorax -5.909869273448521 1.0939463495956505 -0.543347208707893
lowerneck -16.631397126530448 -3.3521751063930876 -2.3342016230900042
upperneck 20.529792392019093 -4.452246940510607 2.418357052448442
head 9.293252606472704 -2.1446869637063752 0.4782584725856653
lclavicle 3.0076445321093813e-16 5.650158596774329e-17
lhumerus -36.502623292349526 12.964666542952518 77.55835286823033
lradius 22.766733540233616
lwrist 7.436004713420296
lhand -29.158744063607227 20.032818477584204
lfingers 7.125020000000001
lthumb -2.345386412790855 50.546314500415136
rclavicle 2.993985447163357e-16 5.552075401260986e-17
rhumerus -22.705517110999697 -13.873849841299656 -80.64096984761603
rradius 28.531077910414282
rwrist 2.7271605677424198
rhand -18.08785980764078 23.165226199353675
rfingers 7.125020000000001
rthumb 7.947622562658433 -6.981604501141081
98
root 0.3852731088250459 17.70163281182282 46.03323516700491 -3.8027967735822563 -3.16073129946698 -4.443687670785792
lfemur -23.214430019162492 -2.5018509619027753 -14.812811290861895
ltibia 33.235453898066744
lfoot -4.865853202024532 -2.7947686725663266
ltoes -8.6215263333491
rfemur -1.9324783136468344 1.9357127850100315 28.954840877409012
rtibia 40.31195896291084
rfoot -5.13812068172097 -6.566806264188316
rtoes 2.9645301504084793
lowerback 10.503450528993714 1.512805175684013 3.2238829949496575
upperback -0.019846912269484526 2.8609252575083355 1.7294606467415397
thorax -5.919756519679267 1.0761924404142977 -0.4014830264346565
lowerneck -16.625356796337563 -3.3206195598707957 -2.331691191893377
upperneck 20.489802563653317 -4.51913247796611 2.3818766720434605
head 9.305403315489345 -2.133407818522977 0.4916108407703048
lclavicle 3.007644532109382e-16 5.650158596774332e-17
lhumerus -36.8284693612428 13.382471252481938 77.08327209247864
lradius 23.004842020819932
lwrist 7.703767048233923
lhand -29.237064888510083 19.70697348391307
lfingers 7.125020000000001
lthumb -2.390638818416147 50.39047115495587
rclavicle 2.993985447163357e-16 5.552075401260985e-17
rhumerus -23.589486145931147 -14.804232575683805 -80.48740783572728
rradius 28.54198636933605
rwrist 2.765433614594604
rhand -18.10461384825333 23.15308552031465
rfingers 7.125020000000001
rthumb 7.932239228305898 -6.992361625965726
99
root 0.4102978414038126 17.729370663711617 47.213304778075916 -4.087373968243929 -2.830272178683578 -3.7644798252992313
lfemur -21.046463314602732 -1.744024801654175 -16.857243125082977
ltibia 34.469852625271535
lfoot -5.0945104771746355 -2.645086661945924
ltoes -8.267941923576357
rfemur -4.9867385868839165 1.0831636273021181 27.658605893171323
rtibia 40.477451764597184
rfoot -4.710789693853751 -6.732670021442242
rtoes 3.1776001164312264
lowerback 10.60612038274142 1.4771188557454105 2.7582394859178847
upperback 0.02300781904388985 2.69077202394978 1.6079126296503896
thorax -5.9139359653927634 1.0815805916917571 -0.11752897473117385
lowerneck -16.619023173005196 -3.2902821731279084 -2.3248438999449172
upperneck 20.44535173048842 -4.5727613230919735 2.3629888528248317
head 9.292928960790862 -2.140351959564638 0.4863251989692794
lclavicle 3.0076445321093813e-16 5.650158596774329e-17
lhumerus -36.97419184625503 13.381147918359977 76.92154534238446
lradius 23.28026467160373
lwrist 7.824964617840672
lhand -29.144560244364786 20.04995331688224
lfingers 7.125020000000001
lthumb -2.384361553727357 50.44927232224382
rclavicle 2.993985447163357e-16 5.552075401260985e-17
rhumerus -24.664383407424033 -15.84376126941147 -80.34451571598264
rradius 28.575158058691002
rwrist 2.7915294089546263
rhand -18.097782819507113 23.18229678324804
rfingers 7.125020000000001
rthumb 7.909923691026743 -7.0406568689787274
100
root 0.41709077089534313 17.74845419375462 47.31601221365857 -4.351363670244903 -2.558965030560579 -3.3011014089023334
lfemur -18.26515930908686 -1.4879476223073727 -19.16163596383413
ltibia 35.12146363075002
lfoot -5.608235777608617 -2.255601073714748
ltoes -7.8435032205209545
rfemur -6.998531132368837 0.5869646218820295 26.99509943061281
rtibia 41.024662537088034
rfoot -4.425535716493387 -6.95325727239141
rtoes 2.9177608035578526
lowerback 10.704211047912375 1.3758974276908629 2.1334429088458826
upperback 0.05418669281978797 2.32674159704496 1.4498957181669119
thorax -5.933964269482524 1.0264844583207409 0.0069329863432283645
lowerneck -16.62156926645468 -3.262720298934477 -2.3112535839991146
upperneck 20.44708582788279 -4.57886175241474 2.3933362547254435
head 9.304862298043469 -2.126751487170853 0.5049549484762474
lclavicle 3.007644532109382e-16 5.650158596774332e-17
lhumerus -36.92473069640306 12.909777980113827 77.06039943840591
lradius 23.6115483031933
lwrist 7.9012811140297305
lhand -29.257499319876526 19.6484872760793
lfingers 7.125020000000001
lthumb -2.4266234189612668 50.32870521507477
rclavicle 2.993985447163357e-16 5.552075401260985e-17
rhumerus -25.62012005937038 -16.81857112310409 -80.17879746895757
rradius 28.56615466336895
rwrist 2.724998993918268
rhand -18.113051545064724 23.16893769920592
rfingers 7.125020000000001
rthumb 7.897483285645416 -7.100915771853507
